HIERARCHY
ROOT Pelvis
{
	OFFSET 0.000000 0.000000 0.000000
	CHANNELS 6 Xposition Yposition Zposition Xrotation Yrotation Zrotation
	JOINT LeftUpLeg_virtual
	{
		OFFSET 0.000000 0.000000 0.000000
		CHANNELS 3 Xrotation Yrotation Zrotation
		JOINT LeftUpLeg
		{
			OFFSET 18.735201 -5.666702 -4.541200
			CHANNELS 3 Xrotation Yrotation Zrotation
			JOINT LeftLeg
			{
				OFFSET -0.021200 -31.938179 0.493100
				CHANNELS 3 Xrotation Yrotation Zrotation
				JOINT LeftFoot
				{
					OFFSET 0.021200 -31.938179 -4.336299
					CHANNELS 3 Xrotation Yrotation Zrotation
					JOINT LeftToeBase
					{
						OFFSET 0.943001 -26.722000 15.023500
						CHANNELS 3 Xrotation Yrotation Zrotation
						End Site
						{
							OFFSET 0 0 0
						}
					}
				}
			}
		}
	}
	JOINT RightUpLeg_virtual
	{
		OFFSET 0.000000 0.000000 0.000000
		CHANNELS 3 Xrotation Yrotation Zrotation
		JOINT RightUpLeg
		{
			OFFSET -18.735201 -5.666702 -4.541200
			CHANNELS 3 Xrotation Yrotation Zrotation
			JOINT RightLeg
			{
				OFFSET 0.018946 -31.938133 0.493100
				CHANNELS 3 Xrotation Yrotation Zrotation
				JOINT RightFoot
				{
					OFFSET -0.018946 -31.938126 -4.336299
					CHANNELS 3 Xrotation Yrotation Zrotation
					JOINT RightToeBase
					{
						OFFSET -0.943001 -26.722004 15.023500
						CHANNELS 3 Xrotation Yrotation Zrotation
						End Site
						{
							OFFSET 0 0 0
						}
					}
				}
			}
		}
	}
	JOINT Hips_virtual
	{
		OFFSET 0.000000 0.000000 0.000000
		CHANNELS 3 Xrotation Yrotation Zrotation
		JOINT Hips
		{
			OFFSET -0.000000 -0.000000 -0.000000
			CHANNELS 3 Xrotation Yrotation Zrotation
			JOINT Spine
			{
				OFFSET 0.000000 10.199997 -0.299500
				CHANNELS 3 Xrotation Yrotation Zrotation
				JOINT Spine1
				{
					OFFSET 0.000000 11.900002 -1.516600
					CHANNELS 3 Xrotation Yrotation Zrotation
					JOINT Spine2
					{
						OFFSET 0.000000 13.600006 -2.842500
						CHANNELS 3 Xrotation Yrotation Zrotation
						JOINT Neck_virtual
						{
							OFFSET 0.000000 0.000000 0.000000
							CHANNELS 3 Xrotation Yrotation Zrotation
							JOINT Neck
							{
								OFFSET 0.000000 9.624100 -2.890100
								CHANNELS 3 Xrotation Yrotation Zrotation
								JOINT Head
								{
									OFFSET 0.000000 14.068802 -1.351900
									CHANNELS 3 Xrotation Yrotation Zrotation
									End Site
									{
										OFFSET 0 0 0
									}
								}
							}
						}
						JOINT LeftShoulder_virtual
						{
							OFFSET 0.000000 0.000000 0.000000
							CHANNELS 3 Xrotation Yrotation Zrotation
							JOINT LeftShoulder
							{
								OFFSET 15.263000 10.923401 -0.547700
								CHANNELS 3 Xrotation Yrotation Zrotation
								JOINT LeftArm
								{
									OFFSET 25.438599 -2.830597 -13.032500
									CHANNELS 3 Xrotation Yrotation Zrotation
									JOINT LeftForeArm
									{
										OFFSET 29.960503 0.000000 0.000000
										CHANNELS 3 Xrotation Yrotation Zrotation
										JOINT LeftHand
										{
											OFFSET 27.849251 0.000000 0.000000
											CHANNELS 3 Xrotation Yrotation Zrotation
											End Site
											{
												OFFSET 0 0 0
											}
										}
									}
								}
							}
						}
						JOINT RightShoulder_virtual
						{
							OFFSET 0.000000 0.000000 0.000000
							CHANNELS 3 Xrotation Yrotation Zrotation
							JOINT RightShoulder
							{
								OFFSET -15.263000 10.923401 -0.547700
								CHANNELS 3 Xrotation Yrotation Zrotation
								JOINT RightArm
								{
									OFFSET -25.438599 -2.830597 -13.032500
									CHANNELS 3 Xrotation Yrotation Zrotation
									JOINT RightForeArm
									{
										OFFSET -29.960503 0.000000 0.000000
										CHANNELS 3 Xrotation Yrotation Zrotation
										JOINT RightHand
										{
											OFFSET -27.849251 0.000000 0.000000
											CHANNELS 3 Xrotation Yrotation Zrotation
											End Site
											{
												OFFSET 0 0 0
											}
										}
									}
								}
							}
						}
					}
				}
			}
		}
	}
}
MOTION
Frames: 12
Frame Time: 0.03333333
1.278208 83.878365 0.322199 0.000000 0.000000 0.000000 4.315512 -11.573261 0.368374 -36.513191 7.368947 16.817985 47.671452 -2.682708 -2.788495 -5.843848 -1.419114 -11.128817 0.000000 0.000000 0.000000 -0.864597 -2.283401 -2.069077 -32.149622 -3.569059 -17.341302 40.670645 2.317877 0.491843 -12.942665 -1.940894 14.000135 0.000000 0.000000 0.000000 -1.307606 -0.923784 0.355329 -3.481543 8.665395 -1.170440 13.500344 -0.021988 0.917162 6.193929 -0.021993 0.175860 0.000000 0.000000 0.000000 3.480780 0.081919 0.397928 -0.238322 0.141681 0.020338 0.000000 0.000000 0.000000 8.514206 -0.138973 0.429549 4.797549 -7.384868 -5.063174 5.948592 -30.351506 -33.825989 17.665116 -61.107776 13.483975 0.000000 0.000000 0.000000 9.212386 -0.908632 2.060903 6.491758 2.552002 12.792954 12.633664 31.395525 35.002411 36.548547 74.218809 -31.522453 0.000000 0.000000 0.000000 
0.525351 84.053993 -0.153360 0.000000 0.000000 0.000000 4.361790 -11.654400 0.620452 -36.445869 7.268207 17.058403 47.520249 -3.008688 -2.896780 -6.519041 -1.597342 -11.521209 0.000000 0.000000 0.000000 -0.679277 -1.964781 -1.506311 -31.904220 -3.707326 -16.729189 41.994800 2.767861 1.075072 -12.522571 -1.850383 15.186917 0.000000 0.000000 0.000000 -2.559456 -1.404315 -0.192793 -2.230927 9.720404 -0.936085 13.718089 -0.392960 0.826903 6.330939 0.052548 0.449061 0.000000 0.000000 0.000000 3.071714 -0.299889 0.237938 -0.350270 0.052699 0.020592 0.000000 0.000000 0.000000 7.881921 -0.403646 0.271442 5.088545 -7.461055 -6.361964 4.627720 -30.902665 -33.877994 19.762360 -62.431590 15.570635 0.000000 0.000000 0.000000 9.525695 -1.010708 2.273850 7.422601 1.833807 14.123814 15.070148 33.810878 32.202392 47.101463 77.074354 -42.202342 0.000000 0.000000 0.000000 
1.005315 83.563583 1.771519 0.000000 0.000000 0.000000 4.506552 -10.777294 0.917799 -36.133941 7.386874 17.381597 46.588638 -3.067633 -2.948313 -7.468720 -1.532776 -11.640901 0.000000 0.000000 0.000000 -1.109066 -1.995695 -1.960684 -32.457178 -3.473903 -17.202035 43.124554 2.210067 1.029986 -12.019578 -2.292325 14.716515 0.000000 0.000000 0.000000 -1.054938 -1.135410 0.499143 -2.479964 11.380426 -2.372098 14.576303 -0.450345 0.389491 5.831806 0.010887 0.749921 0.000000 0.000000 0.000000 3.262500 -0.345585 0.187980 -0.360925 0.153148 -0.060927 0.000000 0.000000 0.000000 7.741838 -0.072935 0.261304 4.887147 -7.678282 -7.206039 6.071718 -31.566197 -31.377759 21.973566 -61.463984 17.735389 0.000000 0.000000 0.000000 9.143663 -1.070162 2.389310 7.489000 0.637314 14.779730 14.447124 33.955449 32.414445 49.824830 77.948885 -45.708907 0.000000 0.000000 0.000000 
0.154578 83.531685 0.068537 0.000000 0.000000 0.000000 4.557455 -9.743316 1.380122 -36.133900 7.464965 18.015121 46.528400 -3.244085 -3.142004 -7.669780 -1.566168 -12.064781 0.000000 0.000000 0.000000 -0.800350 -1.189114 -1.757798 -31.764908 -3.382642 -16.805061 42.893598 1.978957 0.939929 -12.162964 -2.458305 14.362119 0.000000 0.000000 0.000000 -1.530229 -0.586679 -0.011396 0.547034 11.329046 -3.219086 14.285445 -0.696752 0.940997 6.390384 0.279525 0.482486 0.000000 0.000000 0.000000 3.249501 -0.403152 0.020961 -0.367455 0.173301 -0.187175 0.000000 0.000000 0.000000 8.449890 -0.271904 0.342811 4.888673 -7.463838 -6.154757 5.593132 -34.053185 -30.493451 24.053787 -64.192652 20.182379 0.000000 0.000000 0.000000 9.268543 -1.069183 2.428676 7.206037 -0.087286 15.785356 13.731826 33.062040 31.874888 50.954584 78.402860 -47.081450 0.000000 0.000000 0.000000 
0.347260 84.250381 -0.144545 0.000000 0.000000 0.000000 5.461716 -11.279968 2.083366 -35.150616 7.076863 18.526861 46.134636 -3.070591 -3.156554 -8.054260 -1.360502 -11.966737 0.000000 0.000000 0.000000 -0.715623 -0.234537 -1.563949 -31.616078 -3.219273 -16.506428 43.864954 2.001879 0.943218 -11.718359 -2.399676 14.382881 0.000000 0.000000 0.000000 -0.339917 0.173390 -0.276661 -1.306566 10.435496 -3.960127 15.017057 -0.681041 0.406575 5.917519 0.072376 0.677360 0.000000 0.000000 0.000000 3.238890 -0.498880 0.107896 -0.639757 0.248027 -0.128906 0.000000 0.000000 0.000000 8.726916 -0.416044 0.482807 4.849972 -6.863286 -5.980084 7.031162 -33.906282 -28.340340 24.371761 -63.885724 20.404468 0.000000 0.000000 0.000000 8.878238 -1.263546 2.607762 7.182748 -0.402566 15.584362 13.950148 31.435666 32.013442 55.334412 79.860942 -51.577361 0.000000 0.000000 0.000000 
1.213345 84.498993 0.367868 0.000000 0.000000 0.000000 4.886912 -12.471154 1.572170 -35.852957 6.834047 17.941543 45.755779 -3.515072 -2.860700 -8.566248 -1.865864 -11.848698 0.000000 0.000000 0.000000 -0.598080 1.053718 -1.662202 -31.366384 -2.856119 -16.469565 43.750138 2.220306 0.941071 -11.920733 -2.230359 14.484236 0.000000 0.000000 0.000000 -2.758112 -2.701918 0.456499 -2.940831 12.498369 -1.159033 14.589060 -1.381638 0.602002 6.717505 0.238292 0.738262 0.000000 0.000000 0.000000 3.032726 -0.413701 -0.056595 -0.303583 0.249161 -0.242107 0.000000 0.000000 0.000000 8.010541 -0.557229 0.009202 4.422445 -7.277296 -7.124148 7.087208 -32.674594 -28.612405 24.551250 -62.796664 19.877602 0.000000 0.000000 0.000000 9.105396 -1.375237 2.603650 7.454928 -1.035375 15.249191 13.454989 32.051346 33.299723 50.114075 78.665181 -45.400500 0.000000 0.000000 0.000000 
1.467640 84.718643 -0.032591 0.000000 0.000000 0.000000 5.694301 -12.149996 1.504720 -34.897742 7.145943 17.855129 46.298010 -3.381532 -2.803853 -8.180074 -1.783707 -11.735035 0.000000 0.000000 0.000000 -0.348463 1.508325 -1.577842 -31.114254 -2.790198 -16.370497 43.986446 2.220013 0.933945 -11.682068 -2.188796 14.441878 0.000000 0.000000 0.000000 -2.117905 -0.786326 0.684123 -2.926129 14.777831 -0.734885 15.143983 -0.495178 0.306855 7.516385 -0.135190 0.621795 0.000000 0.000000 0.000000 3.287454 -0.447711 0.054837 -0.305720 0.270151 -0.242826 0.000000 0.000000 0.000000 7.524166 -0.619031 0.061044 3.895452 -8.122251 -7.023607 7.492005 -32.204065 -27.582425 23.544410 -62.598356 18.694074 0.000000 0.000000 0.000000 9.084708 -1.362760 2.629627 7.592662 -1.790672 14.925872 12.356869 31.133279 33.055940 46.454166 78.849876 -42.107099 0.000000 0.000000 0.000000 
1.366402 84.593651 -0.946108 0.000000 0.000000 0.000000 5.232645 -12.344253 1.304125 -35.312003 7.021335 17.608561 46.111130 -3.449595 -2.775903 -8.239032 -1.827994 -11.782609 0.000000 0.000000 0.000000 -1.182998 2.168735 -1.591266 -32.211333 -2.473819 -16.311550 42.952922 2.349259 1.104614 -12.371451 -2.188530 14.678263 0.000000 0.000000 0.000000 -1.757767 -3.239822 0.375256 -0.685825 14.938298 -1.589478 15.343737 -0.567532 0.629139 6.882111 -0.141677 0.460425 0.000000 0.000000 0.000000 3.309442 -0.347232 0.014773 -0.268917 0.285298 -0.140598 0.000000 0.000000 0.000000 7.495228 -0.822184 -0.023954 3.589315 -7.479041 -6.935378 8.245896 -31.358396 -26.816900 24.521175 -63.232921 19.893636 0.000000 0.000000 0.000000 9.404961 -1.267456 2.339995 7.343559 -1.950768 14.494835 10.424544 28.436939 34.139116 39.916305 79.034195 -35.746826 0.000000 0.000000 0.000000 
1.111214 84.672211 -0.720409 0.000000 0.000000 0.000000 5.449829 -12.297775 1.458332 -34.926722 7.014026 17.699178 46.398991 -3.164825 -2.515088 -7.969457 -1.703795 -11.259287 0.000000 0.000000 0.000000 -0.660018 1.575109 -2.012939 -31.580759 -2.623040 -16.816885 42.897631 2.237746 0.901208 -12.471327 -2.177633 14.272984 0.000000 0.000000 0.000000 -1.463536 -3.042498 0.728973 -2.479413 14.715279 -1.790388 14.804778 -0.541698 0.231411 6.649047 -0.063206 0.463946 0.000000 0.000000 0.000000 3.113866 -0.319790 -0.078938 -0.302000 0.286005 -0.226030 0.000000 0.000000 0.000000 7.066331 -0.782943 -0.121435 3.330809 -7.940237 -6.717043 5.984788 -30.799461 -27.318513 22.232455 -61.954761 17.428064 0.000000 0.000000 0.000000 8.824800 -1.307124 2.273667 7.210883 -1.846963 13.468732 7.497755 27.480554 35.405030 30.526246 77.868248 -26.572974 0.000000 0.000000 0.000000 
1.099032 84.844910 -0.671015 0.000000 0.000000 0.000000 5.539186 -12.063291 1.518883 -34.475557 7.023210 17.630940 45.117057 -3.141717 -2.384338 -8.633072 -1.723395 -11.067003 0.000000 0.000000 0.000000 -0.358056 2.146600 -1.978595 -30.958474 -2.551212 -16.631248 42.411759 2.229995 0.926231 -12.638783 -2.192817 14.255864 0.000000 0.000000 0.000000 -1.513424 -2.949948 0.920562 -2.688423 14.652631 -2.280241 14.954515 -0.522103 0.212508 6.689951 -0.035593 0.453371 0.000000 0.000000 0.000000 3.387414 -0.418877 0.014498 -0.116263 0.327527 -0.248100 0.000000 0.000000 0.000000 6.904097 -0.990397 0.017095 3.247169 -8.209849 -6.467552 2.238818 -30.237992 -28.289404 19.534515 -62.446063 15.227640 0.000000 0.000000 0.000000 8.650072 -1.323864 2.347657 6.890549 -2.247010 12.699887 3.621997 24.739531 38.789303 22.476319 77.750393 -18.423120 0.000000 0.000000 0.000000 
1.220759 85.079239 -0.450886 0.000000 0.000000 0.000000 5.890159 -12.284248 1.241018 -33.869323 7.152064 17.212485 44.632838 -3.006326 -2.192735 -8.872495 -1.667443 -10.718890 0.000000 0.000000 0.000000 -0.260452 1.748242 -1.827204 -30.829637 -2.721497 -16.500996 41.699968 2.244219 1.105990 -13.054637 -2.297920 14.472249 0.000000 0.000000 0.000000 -1.667905 -1.773307 0.810419 -3.019504 14.959905 -2.340816 15.472822 -0.399553 -0.130482 6.861167 0.037805 0.405242 0.000000 0.000000 0.000000 3.900706 -0.473666 -0.059035 0.195560 0.362407 -0.270901 0.000000 0.000000 0.000000 6.857467 -1.280684 -0.050371 2.966121 -9.139644 -6.415130 -2.096500 -30.136253 -30.491935 17.645304 -62.899526 13.398540 0.000000 0.000000 0.000000 8.529953 -1.227142 2.241833 7.096663 -2.027692 12.410023 1.257059 23.298759 40.425697 15.527988 77.544845 -11.671130 0.000000 0.000000 0.000000 
1.348444 85.527367 0.125269 0.000000 0.000000 0.000000 6.560410 -13.166048 1.287663 -32.967096 7.098945 17.046216 44.795843 -2.907539 -2.175903 -8.639312 -1.600816 -10.654192 0.000000 0.000000 0.000000 0.100879 2.087910 -1.896387 -30.260456 -2.688060 -16.513883 41.138830 2.170776 1.148231 -13.478414 -2.421360 14.434454 0.000000 0.000000 0.000000 -1.984394 -1.713208 0.960724 -3.785891 17.874264 -2.265035 15.461130 -0.387111 -0.134053 6.830801 -0.027766 0.318656 0.000000 0.000000 0.000000 4.667488 -0.512168 0.015611 0.506269 0.335163 -0.245914 0.000000 0.000000 0.000000 6.726550 -1.381523 -0.033495 2.543136 -9.977412 -6.284263 -6.220259 -28.439755 -32.298472 13.181518 -61.919968 9.598029 0.000000 0.000000 0.000000 8.408582 -1.240632 2.148398 6.652914 -2.283672 11.523360 -3.216855 19.959095 43.212315 6.163161 75.908284 -2.575280 0.000000 0.000000 0.000000 
